<svg width="622" height="184" viewBox="0 0 622 184" fill="none" xmlns="http://www.w3.org/2000/svg">
<rect width="622" height="184" rx="60" fill="white"/>
<path d="M135.978 70C140.949 70 144.978 65.9706 144.978 61C144.978 56.0294 140.949 52 135.978 52C131.007 52 126.978 56.0294 126.978 61C126.978 65.9706 131.007 70 135.978 70Z" fill="black"/>
<path d="M115.625 70.9696V81.8175L124.052 84.41C126.104 85.2393 127.446 87.2114 127.446 89.405V115.39C127.446 117.188 126.613 118.888 125.186 120.005L115.978 126C115.203 126.605 114.978 127.5 114.978 127.96V130.856C114.978 133.696 117.308 136 120.18 136H150.798C155.222 136 158.945 132.727 159.461 128.384L165.946 73.9325C166.362 70.4252 162.649 67.877 159.477 69.5009C151.679 73.4956 140.801 78.9908 134.034 78.8294C126.553 78.6489 120.458 73.3342 117.523 70.2257C116.844 69.5072 115.625 69.9883 115.625 70.9728V70.9696Z" fill="#040000"/>
<path d="M70.3792 81.8684L66.0202 119.009C65.6259 122.356 68.0467 125.317 71.1788 125.317H99.7316L97.8237 135.61C97.73 136.119 98.2593 136.493 98.6536 136.193L121.885 118.494C123.333 117.391 124.193 115.598 124.193 113.687V91.1266C124.193 88.4181 122.398 86.0991 119.928 85.6115L76.4725 77.0579C73.5389 76.4811 70.7569 78.6782 70.382 81.8684H70.3792Z" fill="#040000"/>
<path d="M80.7003 92.4377C79.5952 94.0586 78.048 98.494 80.7003 103.268" stroke="white" stroke-width="1.5" stroke-linecap="square"/>
<rect x="77.0295" y="96.7377" width="2.69498" height="4.4206" rx="1.34749" transform="rotate(-3.56167 77.0295 96.7377)" fill="white"/>
<rect x="95.1541" y="95.9746" width="2.65236" height="6.18884" rx="1.32618" fill="white"/>
<path d="M114.605 93.764C115.71 95.3849 117.257 99.8202 114.605 104.594" stroke="white" stroke-width="1.5" stroke-linecap="square"/>
<rect width="2.69498" height="4.4206" rx="1.34749" transform="matrix(-0.998069 -0.0621229 -0.0621229 0.998069 118.276 98.0639)" fill="white"/>
<rect width="2.65236" height="6.18884" rx="1.32618" transform="matrix(-1 0 0 1 106.206 95.9746)" fill="white"/>
<path d="M76.4847 66.8623C81.4343 60.1012 88.0228 54.741 95.6164 51.2972C103.21 47.8534 111.553 46.442 119.843 47.1988L119.484 51.2135C111.876 50.5189 104.219 51.8142 97.2503 54.9747C90.2814 58.1352 84.2349 63.0545 79.6925 69.2593L76.4847 66.8623Z" fill="black"/>
<path d="M206.059 95.7102L207.083 105.419H207.398L208.5 95.5536L218.109 65.0961H225.197L234.647 95.7102L235.75 105.419H236.065L237.246 95.5536L243.941 65.0961H254.888L239.688 120.295H232.442L222.598 89.8379L221.259 81.4602H220.865L219.526 89.9162L209.76 120.295H202.121L187 65.0961H198.735L206.059 95.7102ZM255.674 92.5C255.674 83.3654 257.695 76.3448 261.738 71.4382C265.781 66.4794 271.556 64 279.064 64C283.002 64 286.441 64.6786 289.381 66.0357C292.321 67.3929 294.763 69.3242 296.705 71.8297C298.648 74.3352 300.092 77.3365 301.037 80.8338C301.982 84.331 302.455 88.2198 302.455 92.5C302.455 101.635 300.407 108.681 296.312 113.64C292.269 118.547 286.52 121 279.064 121C275.074 121 271.608 120.321 268.668 118.964C265.728 117.607 263.287 115.676 261.344 113.17C259.454 110.665 258.036 107.663 257.091 104.166C256.146 100.669 255.674 96.7802 255.674 92.5ZM267.014 92.5C267.014 95.2665 267.251 97.8242 267.723 100.173C268.196 102.47 268.905 104.453 269.85 106.124C270.847 107.794 272.107 109.099 273.63 110.038C275.152 110.978 276.964 111.448 279.064 111.448C282.897 111.448 285.863 109.96 287.963 106.985C290.064 104.01 291.114 99.1813 291.114 92.5C291.114 89.8379 290.877 87.3585 290.405 85.0618C289.985 82.7651 289.302 80.7555 288.357 79.033C287.412 77.3104 286.178 75.9794 284.656 75.0398C283.133 74.0481 281.269 73.5522 279.064 73.5522C275.231 73.5522 272.265 75.092 270.165 78.1717C268.064 81.1992 267.014 85.9753 267.014 92.5ZM310.167 65.6442C311.374 65.4354 312.66 65.2527 314.026 65.0961C315.443 64.8874 316.835 64.7308 318.2 64.6264C319.617 64.522 320.982 64.4437 322.295 64.3915C323.608 64.3393 324.815 64.3132 325.918 64.3132C328.49 64.3132 331.011 64.5481 333.478 65.0179C335.999 65.4876 338.23 66.2967 340.173 67.4451C342.168 68.5934 343.743 70.1854 344.898 72.2212C346.106 74.2047 346.709 76.7102 346.709 79.7376C346.709 84.2267 345.659 87.8805 343.559 90.6992C341.459 93.5179 338.65 95.4753 335.132 96.5714L338.991 98.9986L351.592 119.904H339.149L326.627 98.4506L320.956 97.4327V119.904H310.167V65.6442ZM326.705 73.8654C325.603 73.8654 324.5 73.8915 323.398 73.9437C322.347 73.9959 321.534 74.1003 320.956 74.2569V90.1511H325.524C328.517 90.1511 330.906 89.4725 332.691 88.1154C334.476 86.7582 335.368 84.5137 335.368 81.3819C335.368 79.033 334.633 77.206 333.163 75.9011C331.693 74.544 329.541 73.8654 326.705 73.8654ZM371.168 96.4931H368.333V119.904H357.544V65.0961H368.333V89.3681L370.853 88.272L386.053 65.0961H398.339L382.273 88.1154L378.02 91.0907L382.43 94.1442L400.781 119.904H387.471L371.168 96.4931ZM443.475 77.8585C443.475 79.2157 443.291 80.5728 442.924 81.9299C442.609 83.2871 442.058 84.5398 441.27 85.6882C440.482 86.7843 439.459 87.7761 438.198 88.6635C436.938 89.4986 435.416 90.125 433.631 90.5426V91.0124C435.206 91.2733 436.702 91.717 438.12 92.3434C439.537 92.9698 440.771 93.831 441.821 94.9272C442.871 96.0233 443.685 97.3544 444.263 98.9203C444.893 100.486 445.208 102.339 445.208 104.479C445.208 107.298 444.604 109.751 443.396 111.839C442.189 113.875 440.561 115.545 438.514 116.85C436.518 118.155 434.234 119.121 431.662 119.747C429.089 120.374 426.438 120.687 423.707 120.687C422.815 120.687 421.66 120.687 420.242 120.687C418.877 120.687 417.381 120.635 415.753 120.53C414.178 120.478 412.55 120.374 410.87 120.217C409.243 120.06 407.746 119.826 406.381 119.512V65.4876C407.379 65.331 408.507 65.1744 409.768 65.0179C411.08 64.8613 412.471 64.7308 413.942 64.6264C415.412 64.522 416.908 64.4437 418.431 64.3915C420.006 64.3393 421.555 64.3132 423.077 64.3132C425.65 64.3132 428.144 64.522 430.559 64.9396C433.027 65.3049 435.206 65.9835 437.096 66.9753C439.039 67.967 440.587 69.3503 441.743 71.125C442.898 72.8997 443.475 75.1442 443.475 77.8585ZM423.786 111.839C425.099 111.839 426.359 111.683 427.566 111.37C428.826 111.056 429.929 110.587 430.874 109.96C431.819 109.282 432.581 108.446 433.158 107.455C433.736 106.463 434.024 105.288 434.024 103.931C434.024 102.209 433.683 100.852 433.001 99.8599C432.318 98.8681 431.425 98.1113 430.323 97.5893C429.22 97.0151 427.986 96.6497 426.621 96.4931C425.256 96.3365 423.891 96.2582 422.526 96.2582H416.777V111.37C417.039 111.474 417.459 111.552 418.037 111.604C418.614 111.657 419.218 111.709 419.848 111.761C420.531 111.761 421.213 111.787 421.896 111.839C422.631 111.839 423.261 111.839 423.786 111.839ZM420.242 88.1154C420.977 88.1154 421.817 88.0893 422.762 88.0371C423.76 87.9849 424.574 87.9066 425.204 87.8022C427.199 87.1758 428.905 86.2363 430.323 84.9835C431.793 83.7308 432.528 82.0865 432.528 80.0508C432.528 78.6937 432.266 77.5714 431.74 76.6841C431.215 75.7967 430.507 75.092 429.614 74.5701C428.774 74.0481 427.803 73.6827 426.7 73.4739C425.598 73.2651 424.442 73.1607 423.235 73.1607C421.87 73.1607 420.61 73.1868 419.455 73.239C418.299 73.2912 417.407 73.3695 416.777 73.4739V88.1154H420.242ZM452.439 83.0261C454.539 82.0865 457.033 81.3558 459.921 80.8338C462.809 80.2596 465.828 79.9725 468.978 79.9725C471.708 79.9725 473.992 80.3118 475.83 80.9904C477.668 81.6168 479.111 82.5302 480.161 83.7308C481.264 84.9313 482.025 86.3668 482.445 88.0371C482.918 89.7074 483.154 91.5865 483.154 93.6745C483.154 95.9712 483.075 98.294 482.918 100.643C482.76 102.94 482.655 105.21 482.603 107.455C482.603 109.699 482.682 111.891 482.839 114.032C482.997 116.12 483.39 118.103 484.02 119.982H475.672L474.018 114.58H473.625C472.575 116.198 471.105 117.607 469.214 118.808C467.377 119.956 464.988 120.53 462.048 120.53C460.21 120.53 458.556 120.269 457.086 119.747C455.616 119.173 454.356 118.39 453.306 117.398C452.256 116.354 451.442 115.154 450.864 113.797C450.287 112.387 449.998 110.821 449.998 109.099C449.998 106.698 450.523 104.688 451.573 103.07C452.676 101.4 454.224 100.069 456.22 99.0769C458.267 98.033 460.682 97.3283 463.465 96.9629C466.3 96.5453 469.451 96.4148 472.916 96.5714C473.283 93.6483 473.073 91.5604 472.286 90.3077C471.498 89.0028 469.739 88.3503 467.009 88.3503C464.962 88.3503 462.783 88.5591 460.472 88.9766C458.215 89.3942 456.351 89.9423 454.881 90.6209L452.439 83.0261ZM465.434 112.152C467.482 112.152 469.109 111.709 470.317 110.821C471.525 109.882 472.417 108.89 472.995 107.846V102.757C471.367 102.6 469.792 102.574 468.269 102.679C466.799 102.783 465.487 103.018 464.331 103.383C463.176 103.749 462.258 104.271 461.575 104.949C460.892 105.628 460.551 106.489 460.551 107.533C460.551 108.995 460.971 110.143 461.811 110.978C462.704 111.761 463.911 112.152 465.434 112.152ZM515.846 119.904V97.6676C515.846 94.4835 515.373 92.1868 514.428 90.7775C513.536 89.3681 511.987 88.6635 509.782 88.6635C507.839 88.6635 506.185 89.2376 504.82 90.386C503.507 91.4821 502.562 92.8654 501.985 94.5357V119.904H491.746V80.7555H499.858L501.04 85.9231H501.355C502.562 84.2527 504.164 82.7912 506.159 81.5385C508.154 80.2857 510.727 79.6593 513.877 79.6593C515.82 79.6593 517.552 79.9203 519.075 80.4423C520.597 80.9643 521.884 81.8256 522.934 83.0261C523.984 84.2267 524.771 85.8709 525.297 87.9588C525.822 89.9945 526.084 92.5261 526.084 95.5536V119.904H515.846ZM547.657 103.696H544.901V119.904H534.662V65.0961H544.901V97.4327L547.263 96.3365L556.241 80.7555H567.504L558.053 95.6319L554.036 98.6071L558.368 101.661L569 119.904H557.265L547.657 103.696Z" fill="#272525"/>
</svg>
